<svg xmlns="http://www.w3.org/2000/svg" width="128" height="128" viewBox="0 0 32 32">
  <path d="M12 17V5a2 2 0 0 1 4 0v8a2 2 0 0 1 4 0v1a2 2 0 0 1 4 0v2a2 2 0 0 1 4 0v5c0 4-3 7-7 7h-5c-2 0-3-1-4-3l-6-8a2 2 0 0 1 3-3Z" fill="#FFFFFF" fill-opacity=".88" stroke="#FFFFFF" stroke-width="4" stroke-linecap="round" stroke-linejoin="round"/>
  <path d="M12 17V5a2 2 0 0 1 4 0v8a2 2 0 0 1 4 0v1a2 2 0 0 1 4 0v2a2 2 0 0 1 4 0v5c0 4-3 7-7 7h-5c-2 0-3-1-4-3l-6-8a2 2 0 0 1 3-3Z" fill="#FFFFFF" fill-opacity=".88" stroke="#662D91" stroke-width="1.25" stroke-linecap="round" stroke-linejoin="round"/>
  <path d="M16 25h7" fill="none" stroke="#F37021" stroke-width="2.5" stroke-linecap="round"/>
</svg>